<mxfile host="app.diagrams.net" modified="2024-01-06T15:01:37.614Z" agent="Mozilla/5.0 (Windows NT 10.0; Win64; x64) AppleWebKit/537.36 (KHTML, like Gecko) Chrome/120.0.0.0 Safari/537.36" etag="wZCMxnMm2G0Hl3QlmiX3" version="22.1.16" type="device">
  <diagram name="Page-1" id="qPSFZZWf_FqOlIZW2ooJ">
    <mxGraphModel dx="2087" dy="868" grid="1" gridSize="10" guides="1" tooltips="1" connect="1" arrows="1" fold="1" page="0" pageScale="1" pageWidth="850" pageHeight="1100" background="#ffffff" math="0" shadow="0">
      <root>
        <mxCell id="0" />
        <mxCell id="1" parent="0" />
        <mxCell id="GSW4ldEXJS0Q_CK_qqtB-1" value="&lt;font style=&quot;font-size: 16px;&quot;&gt;Data Sources&lt;/font&gt;" style="swimlane;whiteSpace=wrap;html=1;strokeWidth=2;movable=1;resizable=1;rotatable=1;deletable=1;editable=1;locked=0;connectable=1;" vertex="1" parent="1">
          <mxGeometry x="-100" y="90" width="240" height="750" as="geometry">
            <mxRectangle y="90" width="140" height="30" as="alternateBounds" />
          </mxGeometry>
        </mxCell>
        <mxCell id="GSW4ldEXJS0Q_CK_qqtB-2" value="" style="shape=image;verticalLabelPosition=bottom;labelBackgroundColor=default;verticalAlign=top;aspect=fixed;imageAspect=0;image=https://www.ovhcloud.com/sites/default/files/styles/text_media_horizontal/public/2021-09/ECX-1909_Hero_Kafka_600x400%402x-1.png;imageBorder=default;" vertex="1" parent="GSW4ldEXJS0Q_CK_qqtB-1">
          <mxGeometry x="8.07" y="130" width="216.36" height="83.68" as="geometry" />
        </mxCell>
        <mxCell id="GSW4ldEXJS0Q_CK_qqtB-3" value="" style="shape=image;verticalLabelPosition=bottom;labelBackgroundColor=default;verticalAlign=top;imageAspect=0;image=https://miro.medium.com/v2/resize:fit:610/1*lZrXmWJRDLqIImJThs5Lrw.png;aspect=fixed;imageBorder=default;" vertex="1" parent="GSW4ldEXJS0Q_CK_qqtB-1">
          <mxGeometry x="11.82" y="540" width="216.36" height="83.68" as="geometry" />
        </mxCell>
        <mxCell id="GSW4ldEXJS0Q_CK_qqtB-4" value="" style="shape=image;verticalLabelPosition=bottom;labelBackgroundColor=default;verticalAlign=top;aspect=fixed;imageAspect=0;image=https://cdn-icons-png.flaticon.com/512/1493/1493169.png;imageBorder=default;movable=1;resizable=1;rotatable=1;deletable=1;editable=1;locked=0;connectable=1;" vertex="1" parent="GSW4ldEXJS0Q_CK_qqtB-1">
          <mxGeometry x="43.75" y="252.75" width="152.5" height="152.5" as="geometry" />
        </mxCell>
        <mxCell id="GSW4ldEXJS0Q_CK_qqtB-14" value="&lt;font style=&quot;font-size: 13px;&quot;&gt;Data Ingestion&lt;/font&gt;" style="swimlane;whiteSpace=wrap;html=1;movable=1;resizable=1;rotatable=1;deletable=1;editable=1;locked=0;connectable=1;" vertex="1" parent="1">
          <mxGeometry x="310" y="180" width="210" height="580" as="geometry" />
        </mxCell>
        <mxCell id="GSW4ldEXJS0Q_CK_qqtB-55" value="&lt;font style=&quot;font-size: 14px;&quot;&gt;Orchestration&lt;/font&gt;" style="swimlane;whiteSpace=wrap;html=1;" vertex="1" parent="1">
          <mxGeometry x="640" y="622" width="200" height="170" as="geometry" />
        </mxCell>
        <mxCell id="GSW4ldEXJS0Q_CK_qqtB-60" style="edgeStyle=orthogonalEdgeStyle;rounded=0;orthogonalLoop=1;jettySize=auto;html=1;strokeWidth=1.5;" edge="1" parent="1" target="GSW4ldEXJS0Q_CK_qqtB-73">
          <mxGeometry relative="1" as="geometry">
            <mxPoint x="610" y="340" as="targetPoint" />
            <mxPoint x="510" y="250" as="sourcePoint" />
            <Array as="points">
              <mxPoint x="600" y="250" />
            </Array>
          </mxGeometry>
        </mxCell>
        <mxCell id="GSW4ldEXJS0Q_CK_qqtB-81" value="VPC" style="points=[[0,0],[0.25,0],[0.5,0],[0.75,0],[1,0],[1,0.25],[1,0.5],[1,0.75],[1,1],[0.75,1],[0.5,1],[0.25,1],[0,1],[0,0.75],[0,0.5],[0,0.25]];outlineConnect=0;gradientColor=none;html=1;whiteSpace=wrap;fontSize=12;fontStyle=0;container=1;pointerEvents=0;collapsible=0;recursiveResize=0;shape=mxgraph.aws4.group;grIcon=mxgraph.aws4.group_vpc2;strokeColor=#8C4FFF;fillColor=none;verticalAlign=top;align=left;spacingLeft=30;fontColor=#AAB7B8;dashed=0;" vertex="1" parent="1">
          <mxGeometry x="280" y="150" width="1160" height="650" as="geometry" />
        </mxCell>
        <mxCell id="GSW4ldEXJS0Q_CK_qqtB-83" value="AWS Cloud" style="points=[[0,0],[0.25,0],[0.5,0],[0.75,0],[1,0],[1,0.25],[1,0.5],[1,0.75],[1,1],[0.75,1],[0.5,1],[0.25,1],[0,1],[0,0.75],[0,0.5],[0,0.25]];outlineConnect=0;gradientColor=none;html=1;whiteSpace=wrap;fontSize=12;fontStyle=0;container=1;pointerEvents=0;collapsible=0;recursiveResize=0;shape=mxgraph.aws4.group;grIcon=mxgraph.aws4.group_aws_cloud_alt;strokeColor=#232F3E;fillColor=none;verticalAlign=top;align=left;spacingLeft=30;fontColor=#232F3E;dashed=0;" vertex="1" parent="1">
          <mxGeometry x="230" y="90" width="1260" height="750" as="geometry" />
        </mxCell>
        <mxCell id="GSW4ldEXJS0Q_CK_qqtB-82" value="Region" style="points=[[0,0],[0.25,0],[0.5,0],[0.75,0],[1,0],[1,0.25],[1,0.5],[1,0.75],[1,1],[0.75,1],[0.5,1],[0.25,1],[0,1],[0,0.75],[0,0.5],[0,0.25]];outlineConnect=0;gradientColor=none;html=1;whiteSpace=wrap;fontSize=12;fontStyle=0;container=1;pointerEvents=0;collapsible=0;recursiveResize=0;shape=mxgraph.aws4.group;grIcon=mxgraph.aws4.group_region;strokeColor=#00A4A6;fillColor=none;verticalAlign=top;align=left;spacingLeft=30;fontColor=#147EBA;dashed=1;" vertex="1" parent="GSW4ldEXJS0Q_CK_qqtB-83">
          <mxGeometry x="20" y="30" width="1220" height="700" as="geometry" />
        </mxCell>
        <mxCell id="GSW4ldEXJS0Q_CK_qqtB-66" value="&lt;font style=&quot;font-size: 10px;&quot;&gt;&lt;b&gt;Aws Lambda&lt;/b&gt;&lt;/font&gt;" style="sketch=0;points=[[0,0,0],[0.25,0,0],[0.5,0,0],[0.75,0,0],[1,0,0],[0,1,0],[0.25,1,0],[0.5,1,0],[0.75,1,0],[1,1,0],[0,0.25,0],[0,0.5,0],[0,0.75,0],[1,0.25,0],[1,0.5,0],[1,0.75,0]];outlineConnect=0;fontColor=#232F3E;fillColor=#ED7100;strokeColor=#ffffff;dashed=0;verticalLabelPosition=bottom;verticalAlign=top;align=center;html=1;fontSize=12;fontStyle=0;aspect=fixed;shape=mxgraph.aws4.resourceIcon;resIcon=mxgraph.aws4.lambda;" vertex="1" parent="GSW4ldEXJS0Q_CK_qqtB-82">
          <mxGeometry x="131" y="260" width="78" height="78" as="geometry" />
        </mxCell>
        <mxCell id="GSW4ldEXJS0Q_CK_qqtB-92" style="edgeStyle=orthogonalEdgeStyle;rounded=0;orthogonalLoop=1;jettySize=auto;html=1;strokeWidth=1.5;" edge="1" parent="GSW4ldEXJS0Q_CK_qqtB-82" source="GSW4ldEXJS0Q_CK_qqtB-73" target="GSW4ldEXJS0Q_CK_qqtB-70">
          <mxGeometry relative="1" as="geometry" />
        </mxCell>
        <mxCell id="GSW4ldEXJS0Q_CK_qqtB-73" value="Raw Zone" style="sketch=0;points=[[0,0,0],[0.25,0,0],[0.5,0,0],[0.75,0,0],[1,0,0],[0,1,0],[0.25,1,0],[0.5,1,0],[0.75,1,0],[1,1,0],[0,0.25,0],[0,0.5,0],[0,0.75,0],[1,0.25,0],[1,0.5,0],[1,0.75,0]];outlineConnect=0;fontColor=#232F3E;fillColor=#7AA116;strokeColor=#ffffff;dashed=0;verticalLabelPosition=bottom;verticalAlign=top;align=center;html=1;fontSize=10;fontStyle=1;aspect=fixed;shape=mxgraph.aws4.resourceIcon;resIcon=mxgraph.aws4.s3;" vertex="1" parent="GSW4ldEXJS0Q_CK_qqtB-82">
          <mxGeometry x="310" y="260" width="78" height="78" as="geometry" />
        </mxCell>
        <mxCell id="GSW4ldEXJS0Q_CK_qqtB-85" style="edgeStyle=orthogonalEdgeStyle;rounded=0;orthogonalLoop=1;jettySize=auto;html=1;strokeWidth=1.5;" edge="1" parent="GSW4ldEXJS0Q_CK_qqtB-82" source="GSW4ldEXJS0Q_CK_qqtB-65">
          <mxGeometry relative="1" as="geometry">
            <mxPoint x="349" y="360" as="targetPoint" />
          </mxGeometry>
        </mxCell>
        <mxCell id="GSW4ldEXJS0Q_CK_qqtB-86" style="edgeStyle=orthogonalEdgeStyle;rounded=0;orthogonalLoop=1;jettySize=auto;html=1;entryX=0;entryY=0.5;entryDx=0;entryDy=0;entryPerimeter=0;strokeWidth=1.5;" edge="1" parent="GSW4ldEXJS0Q_CK_qqtB-82" source="GSW4ldEXJS0Q_CK_qqtB-66" target="GSW4ldEXJS0Q_CK_qqtB-73">
          <mxGeometry relative="1" as="geometry" />
        </mxCell>
        <mxCell id="GSW4ldEXJS0Q_CK_qqtB-67" value="Amazon&lt;br style=&quot;font-size: 10px;&quot;&gt;Kinesis Data&lt;br style=&quot;font-size: 10px;&quot;&gt;Streams" style="sketch=0;points=[[0,0,0],[0.25,0,0],[0.5,0,0],[0.75,0,0],[1,0,0],[0,1,0],[0.25,1,0],[0.5,1,0],[0.75,1,0],[1,1,0],[0,0.25,0],[0,0.5,0],[0,0.75,0],[1,0.25,0],[1,0.5,0],[1,0.75,0]];outlineConnect=0;fontColor=#232F3E;fillColor=#8C4FFF;strokeColor=#ffffff;dashed=0;verticalLabelPosition=bottom;verticalAlign=top;align=center;html=1;fontSize=10;fontStyle=1;aspect=fixed;shape=mxgraph.aws4.resourceIcon;resIcon=mxgraph.aws4.kinesis_data_streams;" vertex="1" parent="GSW4ldEXJS0Q_CK_qqtB-82">
          <mxGeometry x="70" y="90" width="78" height="78" as="geometry" />
        </mxCell>
        <mxCell id="GSW4ldEXJS0Q_CK_qqtB-68" value="&lt;font style=&quot;font-size: 10px;&quot;&gt;&lt;span style=&quot;font-size: 10px;&quot;&gt;Amazon&lt;br style=&quot;font-size: 10px;&quot;&gt;Kinesis Data&lt;br style=&quot;font-size: 10px;&quot;&gt;Firehose&lt;/span&gt;&lt;/font&gt;" style="sketch=0;points=[[0,0,0],[0.25,0,0],[0.5,0,0],[0.75,0,0],[1,0,0],[0,1,0],[0.25,1,0],[0.5,1,0],[0.75,1,0],[1,1,0],[0,0.25,0],[0,0.5,0],[0,0.75,0],[1,0.25,0],[1,0.5,0],[1,0.75,0]];outlineConnect=0;fontColor=#232F3E;fillColor=#8C4FFF;strokeColor=#ffffff;dashed=0;verticalLabelPosition=bottom;verticalAlign=top;align=center;html=1;fontSize=10;fontStyle=1;aspect=fixed;shape=mxgraph.aws4.resourceIcon;resIcon=mxgraph.aws4.kinesis_data_firehose;" vertex="1" parent="GSW4ldEXJS0Q_CK_qqtB-82">
          <mxGeometry x="180" y="90" width="78" height="78" as="geometry" />
        </mxCell>
        <mxCell id="GSW4ldEXJS0Q_CK_qqtB-91" style="edgeStyle=orthogonalEdgeStyle;rounded=0;orthogonalLoop=1;jettySize=auto;html=1;entryX=0;entryY=0.5;entryDx=0;entryDy=0;entryPerimeter=0;strokeWidth=1.5;" edge="1" parent="GSW4ldEXJS0Q_CK_qqtB-82" source="GSW4ldEXJS0Q_CK_qqtB-67" target="GSW4ldEXJS0Q_CK_qqtB-68">
          <mxGeometry relative="1" as="geometry" />
        </mxCell>
        <mxCell id="GSW4ldEXJS0Q_CK_qqtB-72" value="&lt;font style=&quot;font-size: 10px;&quot;&gt;&lt;b&gt;Aws Managed&lt;br&gt;Workflows for&lt;br&gt;Apache Airflow&lt;/b&gt;&lt;/font&gt;" style="sketch=0;points=[[0,0,0],[0.25,0,0],[0.5,0,0],[0.75,0,0],[1,0,0],[0,1,0],[0.25,1,0],[0.5,1,0],[0.75,1,0],[1,1,0],[0,0.25,0],[0,0.5,0],[0,0.75,0],[1,0.25,0],[1,0.5,0],[1,0.75,0]];outlineConnect=0;fontColor=#232F3E;fillColor=#E7157B;strokeColor=#ffffff;dashed=0;verticalLabelPosition=bottom;verticalAlign=top;align=center;html=1;fontSize=12;fontStyle=0;aspect=fixed;shape=mxgraph.aws4.resourceIcon;resIcon=mxgraph.aws4.managed_workflows_for_apache_airflow;" vertex="1" parent="GSW4ldEXJS0Q_CK_qqtB-82">
          <mxGeometry x="460" y="540" width="78" height="78" as="geometry" />
        </mxCell>
        <mxCell id="GSW4ldEXJS0Q_CK_qqtB-56" value="&lt;font style=&quot;font-size: 14px;&quot;&gt;Access Control, Monitoring&lt;/font&gt;" style="swimlane;whiteSpace=wrap;html=1;" vertex="1" parent="GSW4ldEXJS0Q_CK_qqtB-82">
          <mxGeometry x="670" y="500" width="400" height="170" as="geometry" />
        </mxCell>
        <mxCell id="GSW4ldEXJS0Q_CK_qqtB-80" value="&lt;font style=&quot;font-size: 10px;&quot;&gt;&lt;b&gt;Aws Identity&lt;br&gt;and Access&lt;br&gt;Management&lt;/b&gt;&lt;/font&gt;" style="sketch=0;points=[[0,0,0],[0.25,0,0],[0.5,0,0],[0.75,0,0],[1,0,0],[0,1,0],[0.25,1,0],[0.5,1,0],[0.75,1,0],[1,1,0],[0,0.25,0],[0,0.5,0],[0,0.75,0],[1,0.25,0],[1,0.5,0],[1,0.75,0]];outlineConnect=0;fontColor=#232F3E;fillColor=#DD344C;strokeColor=#ffffff;dashed=0;verticalLabelPosition=bottom;verticalAlign=top;align=center;html=1;fontSize=12;fontStyle=0;aspect=fixed;shape=mxgraph.aws4.resourceIcon;resIcon=mxgraph.aws4.identity_and_access_management;" vertex="1" parent="GSW4ldEXJS0Q_CK_qqtB-56">
          <mxGeometry x="20" y="40" width="78" height="78" as="geometry" />
        </mxCell>
        <mxCell id="GSW4ldEXJS0Q_CK_qqtB-79" value="&lt;font style=&quot;font-size: 10px;&quot;&gt;&lt;b&gt;Amazon&lt;br&gt;CloudWatch&lt;/b&gt;&lt;/font&gt;" style="sketch=0;points=[[0,0,0],[0.25,0,0],[0.5,0,0],[0.75,0,0],[1,0,0],[0,1,0],[0.25,1,0],[0.5,1,0],[0.75,1,0],[1,1,0],[0,0.25,0],[0,0.5,0],[0,0.75,0],[1,0.25,0],[1,0.5,0],[1,0.75,0]];points=[[0,0,0],[0.25,0,0],[0.5,0,0],[0.75,0,0],[1,0,0],[0,1,0],[0.25,1,0],[0.5,1,0],[0.75,1,0],[1,1,0],[0,0.25,0],[0,0.5,0],[0,0.75,0],[1,0.25,0],[1,0.5,0],[1,0.75,0]];outlineConnect=0;fontColor=#232F3E;fillColor=#E7157B;strokeColor=#ffffff;dashed=0;verticalLabelPosition=bottom;verticalAlign=top;align=center;html=1;fontSize=12;fontStyle=0;aspect=fixed;shape=mxgraph.aws4.resourceIcon;resIcon=mxgraph.aws4.cloudwatch_2;" vertex="1" parent="GSW4ldEXJS0Q_CK_qqtB-56">
          <mxGeometry x="154" y="40" width="78" height="78" as="geometry" />
        </mxCell>
        <mxCell id="GSW4ldEXJS0Q_CK_qqtB-78" value="&lt;font style=&quot;font-size: 10px;&quot;&gt;&lt;b&gt;AWS&lt;br&gt;CloudTrail&lt;/b&gt;&lt;/font&gt;" style="sketch=0;points=[[0,0,0],[0.25,0,0],[0.5,0,0],[0.75,0,0],[1,0,0],[0,1,0],[0.25,1,0],[0.5,1,0],[0.75,1,0],[1,1,0],[0,0.25,0],[0,0.5,0],[0,0.75,0],[1,0.25,0],[1,0.5,0],[1,0.75,0]];points=[[0,0,0],[0.25,0,0],[0.5,0,0],[0.75,0,0],[1,0,0],[0,1,0],[0.25,1,0],[0.5,1,0],[0.75,1,0],[1,1,0],[0,0.25,0],[0,0.5,0],[0,0.75,0],[1,0.25,0],[1,0.5,0],[1,0.75,0]];outlineConnect=0;fontColor=#232F3E;fillColor=#E7157B;strokeColor=#ffffff;dashed=0;verticalLabelPosition=bottom;verticalAlign=top;align=center;html=1;fontSize=12;fontStyle=0;aspect=fixed;shape=mxgraph.aws4.resourceIcon;resIcon=mxgraph.aws4.cloudtrail;" vertex="1" parent="GSW4ldEXJS0Q_CK_qqtB-56">
          <mxGeometry x="290" y="46" width="78" height="78" as="geometry" />
        </mxCell>
        <mxCell id="GSW4ldEXJS0Q_CK_qqtB-70" value="&lt;b&gt;&lt;font style=&quot;font-size: 10px;&quot;&gt;AWS Glue&lt;/font&gt;&lt;/b&gt;" style="sketch=0;points=[[0,0,0],[0.25,0,0],[0.5,0,0],[0.75,0,0],[1,0,0],[0,1,0],[0.25,1,0],[0.5,1,0],[0.75,1,0],[1,1,0],[0,0.25,0],[0,0.5,0],[0,0.75,0],[1,0.25,0],[1,0.5,0],[1,0.75,0]];outlineConnect=0;fontColor=#232F3E;fillColor=#8C4FFF;strokeColor=#ffffff;dashed=0;verticalLabelPosition=bottom;verticalAlign=top;align=center;html=1;fontSize=12;fontStyle=0;aspect=fixed;shape=mxgraph.aws4.resourceIcon;resIcon=mxgraph.aws4.glue;" vertex="1" parent="GSW4ldEXJS0Q_CK_qqtB-82">
          <mxGeometry x="460" y="260" width="78" height="78" as="geometry" />
        </mxCell>
        <mxCell id="GSW4ldEXJS0Q_CK_qqtB-94" style="edgeStyle=orthogonalEdgeStyle;rounded=0;orthogonalLoop=1;jettySize=auto;html=1;strokeWidth=1.5;" edge="1" parent="GSW4ldEXJS0Q_CK_qqtB-82" source="GSW4ldEXJS0Q_CK_qqtB-69" target="GSW4ldEXJS0Q_CK_qqtB-74">
          <mxGeometry relative="1" as="geometry" />
        </mxCell>
        <mxCell id="GSW4ldEXJS0Q_CK_qqtB-69" value="Processed Zone" style="sketch=0;points=[[0,0,0],[0.25,0,0],[0.5,0,0],[0.75,0,0],[1,0,0],[0,1,0],[0.25,1,0],[0.5,1,0],[0.75,1,0],[1,1,0],[0,0.25,0],[0,0.5,0],[0,0.75,0],[1,0.25,0],[1,0.5,0],[1,0.75,0]];outlineConnect=0;fontColor=#232F3E;fillColor=#7AA116;strokeColor=#ffffff;dashed=0;verticalLabelPosition=bottom;verticalAlign=top;align=center;html=1;fontSize=10;fontStyle=1;aspect=fixed;shape=mxgraph.aws4.resourceIcon;resIcon=mxgraph.aws4.s3;" vertex="1" parent="GSW4ldEXJS0Q_CK_qqtB-82">
          <mxGeometry x="610" y="260" width="78" height="78" as="geometry" />
        </mxCell>
        <mxCell id="GSW4ldEXJS0Q_CK_qqtB-95" style="edgeStyle=orthogonalEdgeStyle;rounded=0;orthogonalLoop=1;jettySize=auto;html=1;strokeWidth=1.5;" edge="1" parent="GSW4ldEXJS0Q_CK_qqtB-82" source="GSW4ldEXJS0Q_CK_qqtB-74" target="GSW4ldEXJS0Q_CK_qqtB-75">
          <mxGeometry relative="1" as="geometry" />
        </mxCell>
        <mxCell id="GSW4ldEXJS0Q_CK_qqtB-74" value="&lt;font style=&quot;font-size: 10px;&quot;&gt;&lt;b&gt;AWS Glue Crawler&lt;/b&gt;&lt;/font&gt;" style="sketch=0;outlineConnect=0;fontColor=#232F3E;gradientColor=none;fillColor=#8C4FFF;strokeColor=none;dashed=0;verticalLabelPosition=bottom;verticalAlign=top;align=center;html=1;fontSize=12;fontStyle=0;aspect=fixed;pointerEvents=1;shape=mxgraph.aws4.glue_crawlers;" vertex="1" parent="GSW4ldEXJS0Q_CK_qqtB-82">
          <mxGeometry x="760" y="260" width="78" height="78" as="geometry" />
        </mxCell>
        <mxCell id="GSW4ldEXJS0Q_CK_qqtB-96" style="edgeStyle=orthogonalEdgeStyle;rounded=0;orthogonalLoop=1;jettySize=auto;html=1;strokeWidth=1.5;" edge="1" parent="GSW4ldEXJS0Q_CK_qqtB-82" source="GSW4ldEXJS0Q_CK_qqtB-75" target="GSW4ldEXJS0Q_CK_qqtB-76">
          <mxGeometry relative="1" as="geometry" />
        </mxCell>
        <mxCell id="GSW4ldEXJS0Q_CK_qqtB-75" value="&lt;font style=&quot;font-size: 10px;&quot;&gt;&lt;b&gt;AWS Glue Catalog&lt;/b&gt;&lt;/font&gt;" style="sketch=0;outlineConnect=0;fontColor=#232F3E;gradientColor=none;fillColor=#8C4FFF;strokeColor=none;dashed=0;verticalLabelPosition=bottom;verticalAlign=top;align=center;html=1;fontSize=12;fontStyle=0;aspect=fixed;pointerEvents=1;shape=mxgraph.aws4.glue_data_catalog;" vertex="1" parent="GSW4ldEXJS0Q_CK_qqtB-82">
          <mxGeometry x="910" y="260" width="72" height="78" as="geometry" />
        </mxCell>
        <mxCell id="GSW4ldEXJS0Q_CK_qqtB-76" value="&lt;font style=&quot;font-size: 10px;&quot;&gt;&lt;b&gt;Amazon Athena&lt;/b&gt;&lt;/font&gt;" style="sketch=0;points=[[0,0,0],[0.25,0,0],[0.5,0,0],[0.75,0,0],[1,0,0],[0,1,0],[0.25,1,0],[0.5,1,0],[0.75,1,0],[1,1,0],[0,0.25,0],[0,0.5,0],[0,0.75,0],[1,0.25,0],[1,0.5,0],[1,0.75,0]];outlineConnect=0;fontColor=#232F3E;fillColor=#8C4FFF;strokeColor=#ffffff;dashed=0;verticalLabelPosition=bottom;verticalAlign=top;align=center;html=1;fontSize=12;fontStyle=0;aspect=fixed;shape=mxgraph.aws4.resourceIcon;resIcon=mxgraph.aws4.athena;" vertex="1" parent="GSW4ldEXJS0Q_CK_qqtB-82">
          <mxGeometry x="1050" y="260" width="78" height="78" as="geometry" />
        </mxCell>
        <mxCell id="GSW4ldEXJS0Q_CK_qqtB-93" style="edgeStyle=orthogonalEdgeStyle;rounded=0;orthogonalLoop=1;jettySize=auto;html=1;entryX=0;entryY=0.5;entryDx=0;entryDy=0;entryPerimeter=0;strokeWidth=1.5;" edge="1" parent="GSW4ldEXJS0Q_CK_qqtB-82" source="GSW4ldEXJS0Q_CK_qqtB-70" target="GSW4ldEXJS0Q_CK_qqtB-69">
          <mxGeometry relative="1" as="geometry" />
        </mxCell>
        <mxCell id="GSW4ldEXJS0Q_CK_qqtB-99" style="edgeStyle=orthogonalEdgeStyle;rounded=0;orthogonalLoop=1;jettySize=auto;html=1;strokeWidth=1.5;" edge="1" parent="GSW4ldEXJS0Q_CK_qqtB-82" source="GSW4ldEXJS0Q_CK_qqtB-76">
          <mxGeometry relative="1" as="geometry">
            <mxPoint x="1089" y="170" as="targetPoint" />
            <Array as="points" />
          </mxGeometry>
        </mxCell>
        <mxCell id="GSW4ldEXJS0Q_CK_qqtB-100" style="edgeStyle=orthogonalEdgeStyle;rounded=0;orthogonalLoop=1;jettySize=auto;html=1;" edge="1" parent="GSW4ldEXJS0Q_CK_qqtB-82" source="GSW4ldEXJS0Q_CK_qqtB-71" target="GSW4ldEXJS0Q_CK_qqtB-69">
          <mxGeometry relative="1" as="geometry" />
        </mxCell>
        <mxCell id="GSW4ldEXJS0Q_CK_qqtB-71" value="&lt;font style=&quot;font-size: 10px;&quot;&gt;&lt;b&gt;Amazon&lt;br&gt;SageMaker&lt;/b&gt;&lt;/font&gt;" style="sketch=0;points=[[0,0,0],[0.25,0,0],[0.5,0,0],[0.75,0,0],[1,0,0],[0,1,0],[0.25,1,0],[0.5,1,0],[0.75,1,0],[1,1,0],[0,0.25,0],[0,0.5,0],[0,0.75,0],[1,0.25,0],[1,0.5,0],[1,0.75,0]];outlineConnect=0;fontColor=#232F3E;fillColor=#01A88D;strokeColor=#ffffff;dashed=0;verticalLabelPosition=bottom;verticalAlign=top;align=center;html=1;fontSize=12;fontStyle=0;aspect=fixed;shape=mxgraph.aws4.resourceIcon;resIcon=mxgraph.aws4.sagemaker;" vertex="1" parent="GSW4ldEXJS0Q_CK_qqtB-82">
          <mxGeometry x="610" y="60" width="78" height="78" as="geometry" />
        </mxCell>
        <mxCell id="GSW4ldEXJS0Q_CK_qqtB-40" style="edgeStyle=orthogonalEdgeStyle;rounded=0;orthogonalLoop=1;jettySize=auto;html=1;strokeWidth=1.5;" edge="1" parent="GSW4ldEXJS0Q_CK_qqtB-82">
          <mxGeometry relative="1" as="geometry">
            <mxPoint x="648.71" y="260" as="sourcePoint" />
            <mxPoint x="649" y="138" as="targetPoint" />
          </mxGeometry>
        </mxCell>
        <mxCell id="GSW4ldEXJS0Q_CK_qqtB-77" value="&lt;font style=&quot;font-size: 10px;&quot;&gt;&lt;b&gt;Amazon&lt;br&gt;QuickSight&lt;/b&gt;&lt;/font&gt;" style="sketch=0;points=[[0,0,0],[0.25,0,0],[0.5,0,0],[0.75,0,0],[1,0,0],[0,1,0],[0.25,1,0],[0.5,1,0],[0.75,1,0],[1,1,0],[0,0.25,0],[0,0.5,0],[0,0.75,0],[1,0.25,0],[1,0.5,0],[1,0.75,0]];outlineConnect=0;fontColor=#232F3E;fillColor=#8C4FFF;strokeColor=#ffffff;dashed=0;verticalLabelPosition=bottom;verticalAlign=top;align=center;html=1;fontSize=12;fontStyle=0;aspect=fixed;shape=mxgraph.aws4.resourceIcon;resIcon=mxgraph.aws4.quicksight;" vertex="1" parent="GSW4ldEXJS0Q_CK_qqtB-82">
          <mxGeometry x="1050" y="60" width="78" height="78" as="geometry" />
        </mxCell>
        <mxCell id="GSW4ldEXJS0Q_CK_qqtB-65" value="&lt;font style=&quot;font-size: 10px;&quot;&gt;&lt;b&gt;Aws Database&lt;br&gt;Migration Service&lt;/b&gt;&lt;/font&gt;" style="sketch=0;points=[[0,0,0],[0.25,0,0],[0.5,0,0],[0.75,0,0],[1,0,0],[0,1,0],[0.25,1,0],[0.5,1,0],[0.75,1,0],[1,1,0],[0,0.25,0],[0,0.5,0],[0,0.75,0],[1,0.25,0],[1,0.5,0],[1,0.75,0]];outlineConnect=0;fontColor=#232F3E;fillColor=#C925D1;strokeColor=#ffffff;dashed=0;verticalLabelPosition=bottom;verticalAlign=top;align=center;html=1;fontSize=12;fontStyle=0;aspect=fixed;shape=mxgraph.aws4.resourceIcon;resIcon=mxgraph.aws4.database_migration_service;" vertex="1" parent="GSW4ldEXJS0Q_CK_qqtB-82">
          <mxGeometry x="131" y="510" width="78" height="78" as="geometry" />
        </mxCell>
        <mxCell id="GSW4ldEXJS0Q_CK_qqtB-109" value="" style="outlineConnect=0;dashed=0;verticalLabelPosition=bottom;verticalAlign=top;align=center;html=1;shape=mxgraph.aws3.auto_scaling;fillColor=#F58534;gradientColor=none;" vertex="1" parent="GSW4ldEXJS0Q_CK_qqtB-82">
          <mxGeometry x="180" y="490" width="60" height="50" as="geometry" />
        </mxCell>
        <mxCell id="GSW4ldEXJS0Q_CK_qqtB-103" style="edgeStyle=orthogonalEdgeStyle;rounded=0;orthogonalLoop=1;jettySize=auto;html=1;strokeWidth=1.5;" edge="1" parent="1" source="GSW4ldEXJS0Q_CK_qqtB-2" target="GSW4ldEXJS0Q_CK_qqtB-67">
          <mxGeometry relative="1" as="geometry">
            <Array as="points">
              <mxPoint x="270" y="262" />
              <mxPoint x="270" y="262" />
            </Array>
          </mxGeometry>
        </mxCell>
        <mxCell id="GSW4ldEXJS0Q_CK_qqtB-105" style="edgeStyle=orthogonalEdgeStyle;rounded=0;orthogonalLoop=1;jettySize=auto;html=1;strokeWidth=1.5;" edge="1" parent="1" source="GSW4ldEXJS0Q_CK_qqtB-4" target="GSW4ldEXJS0Q_CK_qqtB-66">
          <mxGeometry relative="1" as="geometry">
            <Array as="points">
              <mxPoint x="170" y="419" />
              <mxPoint x="170" y="419" />
            </Array>
          </mxGeometry>
        </mxCell>
        <mxCell id="GSW4ldEXJS0Q_CK_qqtB-106" style="edgeStyle=orthogonalEdgeStyle;rounded=0;orthogonalLoop=1;jettySize=auto;html=1;strokeWidth=1.5;" edge="1" parent="1" source="GSW4ldEXJS0Q_CK_qqtB-3" target="GSW4ldEXJS0Q_CK_qqtB-65">
          <mxGeometry relative="1" as="geometry">
            <Array as="points">
              <mxPoint x="190" y="665" />
              <mxPoint x="190" y="665" />
            </Array>
          </mxGeometry>
        </mxCell>
      </root>
    </mxGraphModel>
  </diagram>
</mxfile>
